<mxfile host="app.diagrams.net" modified="2023-05-13T15:36:53.315Z" agent="Mozilla/5.0 (Windows NT 10.0; Win64; x64) AppleWebKit/537.36 (KHTML, like Gecko) Chrome/113.0.0.0 Safari/537.36 Edg/113.0.1774.35" etag="mKipM6GwHjEiyVxc125f" version="21.3.0" type="device">
  <diagram name="페이지-1" id="oMBxt6t_EECMnI5mAgCw">
    <mxGraphModel dx="1082" dy="1410" grid="1" gridSize="10" guides="1" tooltips="1" connect="1" arrows="1" fold="1" page="1" pageScale="1" pageWidth="827" pageHeight="1169" math="0" shadow="0">
      <root>
        <mxCell id="0" />
        <mxCell id="1" parent="0" />
        <mxCell id="7WLTUCB8d_jSYgMJZm5H-9" value="MyApp" style="rounded=0;whiteSpace=wrap;html=1;fontSize=9;fontStyle=1" vertex="1" parent="1">
          <mxGeometry x="-810" y="-1150" width="120" height="30" as="geometry" />
        </mxCell>
        <mxCell id="7WLTUCB8d_jSYgMJZm5H-12" value="" style="rounded=0;whiteSpace=wrap;html=1;fillColor=#f8cecc;strokeColor=#b85450;" vertex="1" parent="1">
          <mxGeometry x="-690" y="-1150" width="10" height="30" as="geometry" />
        </mxCell>
        <mxCell id="7WLTUCB8d_jSYgMJZm5H-14" value="MaterialApp" style="rounded=0;whiteSpace=wrap;html=1;fillColor=#fff2cc;strokeColor=#d6b656;fontSize=9;fontStyle=1" vertex="1" parent="1">
          <mxGeometry x="-800" y="-1120" width="120" height="30" as="geometry" />
        </mxCell>
        <mxCell id="7WLTUCB8d_jSYgMJZm5H-16" value="home:&lt;br style=&quot;font-size: 9px;&quot;&gt;&lt;b&gt;MainPageTemplate&lt;/b&gt;" style="rounded=0;whiteSpace=wrap;html=1;fontSize=9;" vertex="1" parent="1">
          <mxGeometry x="-790" y="-1090" width="120" height="30" as="geometry" />
        </mxCell>
        <mxCell id="7WLTUCB8d_jSYgMJZm5H-18" value="" style="rounded=0;whiteSpace=wrap;html=1;fillColor=#dae8fc;strokeColor=#6c8ebf;" vertex="1" parent="1">
          <mxGeometry x="-670" y="-1090" width="10" height="30" as="geometry" />
        </mxCell>
      </root>
    </mxGraphModel>
  </diagram>
</mxfile>
